<svg width="500" height="499" viewBox="0 0 500 499" fill="none" xmlns="http://www.w3.org/2000/svg">
<path fill-rule="evenodd" clip-rule="evenodd" d="M95.5 156L12.5 232.5L203 441L251.5 388.5L300 441L490.5 233L407 155.5L95.5 156ZM109.5 232.5L161.5 183.5H105.5L51.5 234.5L203 400L233 368L109.5 232.5ZM251.5 347.5L147.5 234L201.5 184H301L355.5 234L251.5 347.5ZM269.5 368L300 401L452 234L398 183.5H340.5L393.5 233L269.5 368Z" fill="#FFC145"/>
<path d="M300 401L269.5 368L393.5 233L340.5 183.5H398L452 234L300 401Z" fill="#075471"/>
<path fill-rule="evenodd" clip-rule="evenodd" d="M147.5 234L251.5 347.5L355.5 234L301 184H201.5L147.5 234ZM276.5 198H235.5L274 234.5L219 294.5L238 314L312.5 232.5L276.5 198Z" fill="#075471"/>
<path d="M161.5 183.5L109.5 232.5L233 368L203 400L51.5 234.5L105.5 183.5H161.5Z" fill="#075471"/>
<path d="M235.5 198H276.5L312.5 232.5L238 314L219 294.5L274 234.5L235.5 198Z" fill="#FFC145"/>
<path fill-rule="evenodd" clip-rule="evenodd" d="M0 0.5V499H499.5V0L0 0.5ZM12.5 232.5L95.5 156L407 155.5L490.5 233L300 441L251.5 388.5L203 441L12.5 232.5Z" fill="#075471"/>
</svg>
